<mxfile host="app.diagrams.net" modified="2020-10-14T01:01:16.423Z" agent="5.0 (Macintosh; Intel Mac OS X 10_15_3) AppleWebKit/537.36 (KHTML, like Gecko) Chrome/86.0.4240.75 Safari/537.36" etag="qHuMn2qnBnrvyRYmXm-g" version="13.7.9" type="github">
  <diagram id="cohmEAqBEMjF1zSoYcSZ" name="Page-1">
    <mxGraphModel dx="1426" dy="771" grid="1" gridSize="10" guides="1" tooltips="1" connect="1" arrows="1" fold="1" page="1" pageScale="1" pageWidth="4681" pageHeight="3300" math="0" shadow="0">
      <root>
        <mxCell id="0" />
        <mxCell id="1" parent="0" />
        <mxCell id="jTf1APUEV42KsB9cT_s0-1" value="textbook" style="rounded=0;whiteSpace=wrap;html=1;" parent="1" vertex="1">
          <mxGeometry x="800" y="880" width="120" height="60" as="geometry" />
        </mxCell>
        <mxCell id="jTf1APUEV42KsB9cT_s0-3" value="" style="endArrow=none;html=1;exitX=0;exitY=0;exitDx=0;exitDy=0;" parent="1" source="jTf1APUEV42KsB9cT_s0-1" target="jTf1APUEV42KsB9cT_s0-4" edge="1">
          <mxGeometry width="50" height="50" relative="1" as="geometry">
            <mxPoint x="780" y="910" as="sourcePoint" />
            <mxPoint x="700" y="790" as="targetPoint" />
          </mxGeometry>
        </mxCell>
        <mxCell id="jTf1APUEV42KsB9cT_s0-4" value="&lt;u&gt;ISBN&lt;/u&gt;" style="ellipse;whiteSpace=wrap;html=1;" parent="1" vertex="1">
          <mxGeometry x="520" y="740" width="120" height="80" as="geometry" />
        </mxCell>
        <mxCell id="jTf1APUEV42KsB9cT_s0-5" value="" style="endArrow=none;html=1;exitX=0;exitY=0.25;exitDx=0;exitDy=0;" parent="1" source="jTf1APUEV42KsB9cT_s0-1" target="jTf1APUEV42KsB9cT_s0-6" edge="1">
          <mxGeometry width="50" height="50" relative="1" as="geometry">
            <mxPoint x="780" y="910" as="sourcePoint" />
            <mxPoint x="820" y="810" as="targetPoint" />
          </mxGeometry>
        </mxCell>
        <mxCell id="jTf1APUEV42KsB9cT_s0-6" value="category" style="ellipse;whiteSpace=wrap;html=1;" parent="1" vertex="1">
          <mxGeometry x="490" y="840" width="120" height="80" as="geometry" />
        </mxCell>
        <mxCell id="jTf1APUEV42KsB9cT_s0-7" value="" style="endArrow=none;html=1;exitX=0;exitY=0.75;exitDx=0;exitDy=0;" parent="1" source="jTf1APUEV42KsB9cT_s0-1" target="jTf1APUEV42KsB9cT_s0-8" edge="1">
          <mxGeometry width="50" height="50" relative="1" as="geometry">
            <mxPoint x="780" y="910" as="sourcePoint" />
            <mxPoint x="830" y="820" as="targetPoint" />
          </mxGeometry>
        </mxCell>
        <mxCell id="jTf1APUEV42KsB9cT_s0-8" value="title" style="ellipse;whiteSpace=wrap;html=1;" parent="1" vertex="1">
          <mxGeometry x="470" y="940" width="120" height="80" as="geometry" />
        </mxCell>
        <mxCell id="jTf1APUEV42KsB9cT_s0-9" value="" style="endArrow=none;html=1;exitX=0;exitY=1;exitDx=0;exitDy=0;" parent="1" source="jTf1APUEV42KsB9cT_s0-1" target="jTf1APUEV42KsB9cT_s0-10" edge="1">
          <mxGeometry width="50" height="50" relative="1" as="geometry">
            <mxPoint x="730" y="930" as="sourcePoint" />
            <mxPoint x="830" y="860" as="targetPoint" />
          </mxGeometry>
        </mxCell>
        <mxCell id="jTf1APUEV42KsB9cT_s0-10" value="description" style="ellipse;whiteSpace=wrap;html=1;strokeWidth=3;" parent="1" vertex="1">
          <mxGeometry x="470" y="1040" width="120" height="80" as="geometry" />
        </mxCell>
        <mxCell id="jTf1APUEV42KsB9cT_s0-89" value="company" style="rounded=0;whiteSpace=wrap;html=1;strokeWidth=1;" parent="1" vertex="1">
          <mxGeometry x="780" y="470" width="120" height="60" as="geometry" />
        </mxCell>
        <mxCell id="jTf1APUEV42KsB9cT_s0-90" value="" style="endArrow=none;html=1;exitX=0;exitY=0;exitDx=0;exitDy=0;" parent="1" source="jTf1APUEV42KsB9cT_s0-89" target="jTf1APUEV42KsB9cT_s0-91" edge="1">
          <mxGeometry width="50" height="50" relative="1" as="geometry">
            <mxPoint x="830" y="520" as="sourcePoint" />
            <mxPoint x="760" y="400" as="targetPoint" />
          </mxGeometry>
        </mxCell>
        <mxCell id="jTf1APUEV42KsB9cT_s0-91" value="&lt;u&gt;name&lt;/u&gt;" style="ellipse;whiteSpace=wrap;html=1;" parent="1" vertex="1">
          <mxGeometry x="570" y="340.0000000000002" width="120" height="80" as="geometry" />
        </mxCell>
        <mxCell id="jTf1APUEV42KsB9cT_s0-92" value="" style="endArrow=none;html=1;exitX=0.25;exitY=0;exitDx=0;exitDy=0;" parent="1" source="jTf1APUEV42KsB9cT_s0-89" target="jTf1APUEV42KsB9cT_s0-93" edge="1">
          <mxGeometry width="50" height="50" relative="1" as="geometry">
            <mxPoint x="830" y="520" as="sourcePoint" />
            <mxPoint x="840" y="410" as="targetPoint" />
          </mxGeometry>
        </mxCell>
        <mxCell id="jTf1APUEV42KsB9cT_s0-93" value="&lt;u&gt;address&lt;/u&gt;" style="ellipse;whiteSpace=wrap;html=1;" parent="1" vertex="1">
          <mxGeometry x="710" y="340.0000000000002" width="120" height="80" as="geometry" />
        </mxCell>
        <mxCell id="jTf1APUEV42KsB9cT_s0-94" value="" style="endArrow=none;html=1;exitX=0.75;exitY=0;exitDx=0;exitDy=0;" parent="1" source="jTf1APUEV42KsB9cT_s0-89" target="jTf1APUEV42KsB9cT_s0-95" edge="1">
          <mxGeometry width="50" height="50" relative="1" as="geometry">
            <mxPoint x="830" y="520" as="sourcePoint" />
            <mxPoint x="970" y="410" as="targetPoint" />
          </mxGeometry>
        </mxCell>
        <mxCell id="jTf1APUEV42KsB9cT_s0-95" value="phone number" style="ellipse;whiteSpace=wrap;html=1;strokeWidth=3;" parent="1" vertex="1">
          <mxGeometry x="870.0000000000005" y="340.0000000000002" width="120" height="80" as="geometry" />
        </mxCell>
        <mxCell id="jTf1APUEV42KsB9cT_s0-96" value="" style="endArrow=none;html=1;exitX=0;exitY=0;exitDx=0;exitDy=0;" parent="1" source="jTf1APUEV42KsB9cT_s0-95" target="jTf1APUEV42KsB9cT_s0-97" edge="1">
          <mxGeometry width="50" height="50" relative="1" as="geometry">
            <mxPoint x="830" y="520" as="sourcePoint" />
            <mxPoint x="870" y="300" as="targetPoint" />
          </mxGeometry>
        </mxCell>
        <mxCell id="jTf1APUEV42KsB9cT_s0-97" value="number" style="ellipse;whiteSpace=wrap;html=1;" parent="1" vertex="1">
          <mxGeometry x="800" y="250" width="120" height="80" as="geometry" />
        </mxCell>
        <mxCell id="jTf1APUEV42KsB9cT_s0-98" value="" style="endArrow=none;html=1;exitX=1;exitY=0;exitDx=0;exitDy=0;" parent="1" source="jTf1APUEV42KsB9cT_s0-95" target="jTf1APUEV42KsB9cT_s0-99" edge="1">
          <mxGeometry width="50" height="50" relative="1" as="geometry">
            <mxPoint x="830" y="520" as="sourcePoint" />
            <mxPoint x="990" y="330" as="targetPoint" />
          </mxGeometry>
        </mxCell>
        <mxCell id="jTf1APUEV42KsB9cT_s0-99" value="description" style="ellipse;whiteSpace=wrap;html=1;" parent="1" vertex="1">
          <mxGeometry x="950.0000000000005" y="250" width="120" height="80" as="geometry" />
        </mxCell>
        <mxCell id="jTf1APUEV42KsB9cT_s0-104" value="person" style="rounded=0;whiteSpace=wrap;html=1;strokeWidth=1;" parent="1" vertex="1">
          <mxGeometry x="1250" y="470" width="120" height="60" as="geometry" />
        </mxCell>
        <mxCell id="jTf1APUEV42KsB9cT_s0-107" value="name" style="ellipse;whiteSpace=wrap;html=1;strokeWidth=1;" parent="1" vertex="1">
          <mxGeometry x="1150" y="320" width="120" height="80" as="geometry" />
        </mxCell>
        <mxCell id="jTf1APUEV42KsB9cT_s0-115" value="" style="endArrow=none;html=1;exitX=0.25;exitY=0;exitDx=0;exitDy=0;" parent="1" source="jTf1APUEV42KsB9cT_s0-104" target="jTf1APUEV42KsB9cT_s0-107" edge="1">
          <mxGeometry width="50" height="50" relative="1" as="geometry">
            <mxPoint x="1299.9999999999995" y="449.9999999999998" as="sourcePoint" />
            <mxPoint x="1199.9999999999995" y="389.9999999999998" as="targetPoint" />
          </mxGeometry>
        </mxCell>
        <mxCell id="jTf1APUEV42KsB9cT_s0-116" value="" style="endArrow=none;html=1;exitX=0.668;exitY=-0.04;exitDx=0;exitDy=0;exitPerimeter=0;" parent="1" source="jTf1APUEV42KsB9cT_s0-104" target="jTf1APUEV42KsB9cT_s0-117" edge="1">
          <mxGeometry width="50" height="50" relative="1" as="geometry">
            <mxPoint x="910" y="430" as="sourcePoint" />
            <mxPoint x="1360" y="390" as="targetPoint" />
          </mxGeometry>
        </mxCell>
        <mxCell id="jTf1APUEV42KsB9cT_s0-117" value="&lt;u&gt;email address&lt;/u&gt;" style="ellipse;whiteSpace=wrap;html=1;" parent="1" vertex="1">
          <mxGeometry x="1299.9999999999995" y="319.9999999999998" width="120" height="80" as="geometry" />
        </mxCell>
        <mxCell id="jTf1APUEV42KsB9cT_s0-128" value="contact" style="rhombus;whiteSpace=wrap;html=1;strokeWidth=1;" parent="1" vertex="1">
          <mxGeometry x="1020" y="460" width="120" height="80" as="geometry" />
        </mxCell>
        <mxCell id="jTf1APUEV42KsB9cT_s0-129" value="" style="endArrow=none;html=1;entryX=0;entryY=0.5;entryDx=0;entryDy=0;exitX=1;exitY=0.5;exitDx=0;exitDy=0;" parent="1" source="jTf1APUEV42KsB9cT_s0-89" target="jTf1APUEV42KsB9cT_s0-128" edge="1">
          <mxGeometry width="50" height="50" relative="1" as="geometry">
            <mxPoint x="830" y="520" as="sourcePoint" />
            <mxPoint x="880" y="470" as="targetPoint" />
          </mxGeometry>
        </mxCell>
        <mxCell id="jTf1APUEV42KsB9cT_s0-130" value="" style="endArrow=none;html=1;exitX=0;exitY=0.5;exitDx=0;exitDy=0;entryX=1;entryY=0.5;entryDx=0;entryDy=0;" parent="1" source="jTf1APUEV42KsB9cT_s0-104" target="jTf1APUEV42KsB9cT_s0-128" edge="1">
          <mxGeometry width="50" height="50" relative="1" as="geometry">
            <mxPoint x="830" y="520" as="sourcePoint" />
            <mxPoint x="880" y="470" as="targetPoint" />
          </mxGeometry>
        </mxCell>
        <mxCell id="jTf1APUEV42KsB9cT_s0-144" value="" style="endArrow=none;html=1;exitX=0;exitY=0.5;exitDx=0;exitDy=0;entryX=1;entryY=0.5;entryDx=0;entryDy=0;" parent="1" source="jTf1APUEV42KsB9cT_s0-148" target="jTf1APUEV42KsB9cT_s0-145" edge="1">
          <mxGeometry width="50" height="50" relative="1" as="geometry">
            <mxPoint x="620" y="729.9999999999998" as="sourcePoint" />
            <mxPoint x="610" y="670" as="targetPoint" />
          </mxGeometry>
        </mxCell>
        <mxCell id="jTf1APUEV42KsB9cT_s0-145" value="copies number" style="ellipse;whiteSpace=wrap;html=1;" parent="1" vertex="1">
          <mxGeometry x="520" y="629.9999999999998" width="120" height="80" as="geometry" />
        </mxCell>
        <mxCell id="jTf1APUEV42KsB9cT_s0-148" value="corporation sell" style="rhombus;whiteSpace=wrap;html=1;strokeWidth=1;" parent="1" vertex="1">
          <mxGeometry x="690" y="630" width="110" height="80" as="geometry" />
        </mxCell>
        <mxCell id="jTf1APUEV42KsB9cT_s0-149" value="" style="endArrow=none;html=1;exitX=0.5;exitY=0;exitDx=0;exitDy=0;entryX=0.25;entryY=1;entryDx=0;entryDy=0;" parent="1" source="jTf1APUEV42KsB9cT_s0-148" target="jTf1APUEV42KsB9cT_s0-89" edge="1">
          <mxGeometry width="50" height="50" relative="1" as="geometry">
            <mxPoint x="830" y="950" as="sourcePoint" />
            <mxPoint x="880" y="900" as="targetPoint" />
          </mxGeometry>
        </mxCell>
        <mxCell id="jTf1APUEV42KsB9cT_s0-163" value="0..*" style="edgeLabel;html=1;align=center;verticalAlign=middle;resizable=0;points=[];" parent="jTf1APUEV42KsB9cT_s0-149" vertex="1" connectable="0">
          <mxGeometry x="-0.0271" y="4" relative="1" as="geometry">
            <mxPoint x="-13.57" as="offset" />
          </mxGeometry>
        </mxCell>
        <mxCell id="jTf1APUEV42KsB9cT_s0-150" value="" style="endArrow=none;html=1;exitX=0.25;exitY=0;exitDx=0;exitDy=0;entryX=0.5;entryY=1;entryDx=0;entryDy=0;" parent="1" source="jTf1APUEV42KsB9cT_s0-1" target="jTf1APUEV42KsB9cT_s0-148" edge="1">
          <mxGeometry width="50" height="50" relative="1" as="geometry">
            <mxPoint x="830" y="950" as="sourcePoint" />
            <mxPoint x="880" y="900" as="targetPoint" />
          </mxGeometry>
        </mxCell>
        <mxCell id="jTf1APUEV42KsB9cT_s0-151" value="" style="endArrow=none;html=1;exitX=0.75;exitY=0;exitDx=0;exitDy=0;entryX=0.5;entryY=1;entryDx=0;entryDy=0;" parent="1" source="jTf1APUEV42KsB9cT_s0-1" target="jTf1APUEV42KsB9cT_s0-152" edge="1">
          <mxGeometry width="50" height="50" relative="1" as="geometry">
            <mxPoint x="830" y="950" as="sourcePoint" />
            <mxPoint x="950" y="720" as="targetPoint" />
          </mxGeometry>
        </mxCell>
        <mxCell id="jTf1APUEV42KsB9cT_s0-152" value="publish" style="rhombus;whiteSpace=wrap;html=1;" parent="1" vertex="1">
          <mxGeometry x="910" y="630" width="110" height="80" as="geometry" />
        </mxCell>
        <mxCell id="jTf1APUEV42KsB9cT_s0-153" value="" style="endArrow=none;html=1;exitX=0.5;exitY=0;exitDx=0;exitDy=0;" parent="1" source="jTf1APUEV42KsB9cT_s0-152" target="jTf1APUEV42KsB9cT_s0-89" edge="1">
          <mxGeometry width="50" height="50" relative="1" as="geometry">
            <mxPoint x="830" y="950" as="sourcePoint" />
            <mxPoint x="880" y="900" as="targetPoint" />
          </mxGeometry>
        </mxCell>
        <mxCell id="jTf1APUEV42KsB9cT_s0-154" value="individual sell" style="rhombus;whiteSpace=wrap;html=1;strokeWidth=1;" parent="1" vertex="1">
          <mxGeometry x="1255" y="730" width="110" height="80" as="geometry" />
        </mxCell>
        <mxCell id="jTf1APUEV42KsB9cT_s0-155" value="" style="endArrow=none;html=1;exitX=0.5;exitY=0;exitDx=0;exitDy=0;entryX=0.5;entryY=1;entryDx=0;entryDy=0;" parent="1" source="jTf1APUEV42KsB9cT_s0-154" target="jTf1APUEV42KsB9cT_s0-104" edge="1">
          <mxGeometry width="50" height="50" relative="1" as="geometry">
            <mxPoint x="870" y="860" as="sourcePoint" />
            <mxPoint x="920" y="810" as="targetPoint" />
          </mxGeometry>
        </mxCell>
        <mxCell id="jTf1APUEV42KsB9cT_s0-156" value="" style="endArrow=none;html=1;exitX=1;exitY=0.5;exitDx=0;exitDy=0;entryX=0.5;entryY=1;entryDx=0;entryDy=0;" parent="1" source="jTf1APUEV42KsB9cT_s0-1" target="jTf1APUEV42KsB9cT_s0-154" edge="1">
          <mxGeometry width="50" height="50" relative="1" as="geometry">
            <mxPoint x="870" y="860" as="sourcePoint" />
            <mxPoint x="920" y="810" as="targetPoint" />
            <Array as="points">
              <mxPoint x="1315" y="910" />
            </Array>
          </mxGeometry>
        </mxCell>
        <mxCell id="jTf1APUEV42KsB9cT_s0-157" value="" style="endArrow=none;html=1;exitX=1;exitY=0.5;exitDx=0;exitDy=0;" parent="1" source="jTf1APUEV42KsB9cT_s0-152" target="jTf1APUEV42KsB9cT_s0-158" edge="1">
          <mxGeometry width="50" height="50" relative="1" as="geometry">
            <mxPoint x="870" y="810" as="sourcePoint" />
            <mxPoint x="1090" y="670" as="targetPoint" />
          </mxGeometry>
        </mxCell>
        <mxCell id="jTf1APUEV42KsB9cT_s0-158" value="year" style="ellipse;whiteSpace=wrap;html=1;" parent="1" vertex="1">
          <mxGeometry x="1079.9999999999995" y="629.9999999999998" width="120" height="80" as="geometry" />
        </mxCell>
        <mxCell id="jTf1APUEV42KsB9cT_s0-159" value="copies number" style="ellipse;whiteSpace=wrap;html=1;" parent="1" vertex="1">
          <mxGeometry x="1430" y="729.9999999999998" width="120" height="80" as="geometry" />
        </mxCell>
        <mxCell id="jTf1APUEV42KsB9cT_s0-160" value="" style="endArrow=none;html=1;exitX=1;exitY=0.5;exitDx=0;exitDy=0;entryX=0;entryY=0.5;entryDx=0;entryDy=0;" parent="1" source="jTf1APUEV42KsB9cT_s0-154" target="jTf1APUEV42KsB9cT_s0-159" edge="1">
          <mxGeometry width="50" height="50" relative="1" as="geometry">
            <mxPoint x="870" y="810" as="sourcePoint" />
            <mxPoint x="920" y="760" as="targetPoint" />
          </mxGeometry>
        </mxCell>
        <mxCell id="jTf1APUEV42KsB9cT_s0-161" value="1..1" style="text;html=1;align=center;verticalAlign=middle;resizable=0;points=[];autosize=1;" parent="1" vertex="1">
          <mxGeometry x="950" y="480" width="40" height="20" as="geometry" />
        </mxCell>
        <mxCell id="jTf1APUEV42KsB9cT_s0-162" value="1..1" style="text;html=1;align=center;verticalAlign=middle;resizable=0;points=[];autosize=1;" parent="1" vertex="1">
          <mxGeometry x="1170" y="480" width="40" height="20" as="geometry" />
        </mxCell>
        <mxCell id="jTf1APUEV42KsB9cT_s0-164" value="0..*" style="text;html=1;align=center;verticalAlign=middle;resizable=0;points=[];autosize=1;" parent="1" vertex="1">
          <mxGeometry x="765" y="810" width="30" height="20" as="geometry" />
        </mxCell>
        <mxCell id="jTf1APUEV42KsB9cT_s0-165" value="0..*" style="edgeLabel;html=1;align=center;verticalAlign=middle;resizable=0;points=[];" parent="1" vertex="1" connectable="0">
          <mxGeometry x="769.9969717839572" y="588.7112062142951" as="geometry">
            <mxPoint x="529" y="50" as="offset" />
          </mxGeometry>
        </mxCell>
        <mxCell id="jTf1APUEV42KsB9cT_s0-166" value="0..*" style="edgeLabel;html=1;align=center;verticalAlign=middle;resizable=0;points=[];" parent="1" vertex="1" connectable="0">
          <mxGeometry x="779.9969717839572" y="598.7112062142951" as="geometry">
            <mxPoint x="189" y="320" as="offset" />
          </mxGeometry>
        </mxCell>
        <mxCell id="jTf1APUEV42KsB9cT_s0-167" value="0..*" style="edgeLabel;html=1;align=center;verticalAlign=middle;resizable=0;points=[];" parent="1" vertex="1" connectable="0">
          <mxGeometry x="789.9969717839572" y="608.7112062142951" as="geometry">
            <mxPoint x="139" y="-29" as="offset" />
          </mxGeometry>
        </mxCell>
        <mxCell id="jTf1APUEV42KsB9cT_s0-168" value="1..1" style="text;html=1;align=center;verticalAlign=middle;resizable=0;points=[];autosize=1;" parent="1" vertex="1">
          <mxGeometry x="910" y="820" width="40" height="20" as="geometry" />
        </mxCell>
      </root>
    </mxGraphModel>
  </diagram>
</mxfile>
